<!DOCTYPE svg PUBLIC "-//W3C//DTD SVG 20010904//EN" "http://www.w3.org/TR/2001/REC-SVG-20010904/DTD/svg10.dtd">
<svg version="1.0" xmlns="http://www.w3.org/2000/svg" width="120px" height="120px" viewBox="0 0 1200 1200" preserveAspectRatio="xMidYMid meet">
<g id="layer101" fill="#060504" stroke="none">
<path d="M420 1181 c-193 -61 -348 -219 -404 -410 -22 -74 -22 -268 0 -342 57 -194 219 -356 413 -413 74 -22 268 -22 342 0 194 57 356 219 413 413 22 74 22 268 0 342 -57 194 -219 356 -413 413 -77 23 -277 21 -351 -3z"/>
</g>
<g id="layer102" fill="#423d3c" stroke="none">
<path d="M490 1197 c-3 -3 -18 -7 -35 -10 -93 -16 -184 -68 -275 -156 -91 -88 -145 -179 -168 -286 -9 -39 -9 -251 0 -290 23 -105 72 -190 163 -280 90 -91 175 -140 280 -163 41 -9 251 -9 298 1 181 35 399 252 434 432 10 49 11 258 1 300 -23 107 -77 198 -168 286 -86 84 -159 127 -265 156 -27 8 -259 16 -265 10z m261 -53 c202 -60 361 -229 404 -432 18 -85 18 -139 0 -227 -35 -167 -148 -315 -296 -388 -81 -40 -124 -50 -72 -16 36 23 103 118 103 146 0 14 7 10 30 -17 27 -33 30 -34 46 -18 17 17 17 19 -4 48 -26 35 -26 35 17 14 25 -13 35 -13 46 -4 20 17 19 34 -5 55 -30 27 -24 38 11 19 26 -13 33 -14 40 -2 17 26 8 35 -58 64 -37 16 -70 30 -73 32 -4 1 -11 -8 -17 -20 -9 -19 -5 -29 20 -61 l29 -38 -46 23 c-45 21 -48 22 -74 6 -63 -39 -143 -78 -159 -77 -12 0 -10 3 7 8 97 30 177 102 223 199 26 55 31 78 31 142 0 64 -5 87 -31 142 -38 81 -97 142 -172 177 -48 22 -69 26 -151 26 -84 0 -101 -3 -150 -28 -117 -60 -186 -162 -201 -297 l-8 -75 4 86 4 87 -86 -24 c-47 -13 -94 -31 -104 -40 -18 -16 -19 -16 -19 7 0 14 7 51 15 82 49 188 211 351 398 402 72 19 230 19 298 -1z m-114 -901 c-20 -2 -52 -2 -70 0 -17 2 0 4 38 4 39 0 53 -2 32 -4z m70 -135 c-2 -24 -4 -5 -4 42 0 47 2 66 4 43 2 -24 2 -62 0 -85z m-61 67 c9 -39 0 -30 -15 15 -6 19 -7 30 -2 25 5 -6 13 -23 17 -40z"/>
</g>
<g id="layer103" fill="#2b4c63" stroke="none">
<path d="M520 940 c-19 -4 -36 -13 -38 -19 -2 -5 -10 -7 -19 -4 -12 5 -14 3 -8 -7 5 -9 4 -11 -3 -6 -7 4 -32 -7 -56 -23 -133 -92 -181 -281 -109 -430 37 -76 38 -80 14 -51 -11 14 -21 20 -21 14 0 -6 9 -19 20 -29 11 -10 20 -15 20 -10 0 4 19 -9 41 -30 71 -64 140 -90 239 -90 72 0 94 4 147 29 73 33 144 104 175 174 33 72 36 191 8 264 -28 76 -101 156 -177 193 -63 31 -166 42 -233 25z m77 -137 c-2 -16 -4 -3 -4 27 0 30 2 43 4 28 2 -16 2 -40 0 -55z"/>
</g>
<g id="layer104" fill="#0b76af" stroke="none">
<path d="M520 940 c-19 -4 -36 -13 -38 -19 -2 -5 -10 -7 -19 -4 -12 5 -14 3 -8 -7 5 -9 4 -11 -3 -6 -7 4 -32 -7 -56 -23 -133 -92 -181 -281 -109 -430 37 -76 38 -80 14 -51 -11 14 -21 20 -21 14 0 -6 9 -19 20 -29 11 -10 20 -15 20 -10 0 4 19 -9 41 -30 71 -64 140 -90 239 -90 72 0 94 4 147 29 73 33 144 104 175 174 33 72 36 191 8 264 -28 76 -101 156 -177 193 -63 31 -166 42 -233 25z m250 -46 c44 -30 111 -98 126 -129 8 -16 9 -21 2 -11 -30 45 -86 101 -127 128 -25 15 -41 28 -35 28 5 0 21 -7 34 -16z m-173 -91 c-2 -16 -4 -3 -4 27 0 30 2 43 4 28 2 -16 2 -40 0 -55z"/>
</g>
<g id="layer105" fill="#636970" stroke="none">
<path d="M424 1176 c-106 -34 -171 -74 -249 -151 -119 -119 -175 -255 -175 -425 0 -170 56 -306 175 -425 120 -119 255 -175 427 -175 165 0 307 59 424 175 115 116 174 259 174 425 0 170 -56 306 -175 425 -121 120 -256 175 -429 175 -77 -1 -118 -6 -172 -24z m337 -32 c237 -70 409 -298 409 -544 0 -154 -57 -287 -170 -400 -132 -133 -312 -193 -475 -161 l-40 8 42 8 c38 7 42 10 53 51 7 24 16 44 20 44 4 0 13 -20 20 -45 11 -39 16 -45 40 -45 20 0 29 6 34 23 9 35 7 147 -3 147 -30 0 -41 -15 -42 -54 l-1 -41 -12 38 c-13 41 -40 60 -99 70 -40 6 -126 45 -166 74 -23 17 -24 17 -17 -7 6 -23 6 -24 -5 -5 -7 11 -28 39 -47 62 -18 23 -31 46 -28 51 3 5 -4 32 -14 61 -11 28 -20 60 -20 71 0 10 -4 21 -8 24 -10 6 -141 -51 -165 -72 -9 -8 -20 -12 -24 -8 -4 3 -7 50 -7 104 -1 282 190 512 467 562 67 12 189 4 258 -16z m-466 -863 c-5 -4 -54 51 -55 62 0 4 13 -7 29 -25 16 -18 28 -35 26 -37z m-50 -40 c-5 -4 -54 51 -55 62 0 4 13 -7 29 -25 16 -18 28 -35 26 -37z m311 -62 c1 -44 1 -44 -3 -4 -3 22 -10 44 -16 48 -8 6 -7 7 3 4 10 -2 15 -18 16 -48z"/>
<path d="M520 940 c-19 -4 -36 -13 -38 -19 -2 -5 -10 -7 -19 -4 -12 5 -14 3 -8 -7 5 -9 4 -11 -3 -6 -7 4 -32 -7 -56 -23 -133 -92 -181 -281 -109 -430 37 -76 38 -80 14 -51 -11 14 -21 20 -21 14 0 -6 9 -19 20 -29 11 -10 20 -15 20 -10 0 4 19 -9 41 -30 71 -64 140 -90 239 -90 72 0 94 4 147 29 73 33 144 104 175 174 33 72 36 191 8 264 -28 76 -101 156 -177 193 -63 31 -166 42 -233 25z m184 -20 c118 -37 212 -146 232 -270 l7 -43 -63 6 c-35 4 -108 8 -164 8 -56 1 -91 4 -78 6 25 5 30 28 6 37 -8 3 -12 11 -8 17 3 6 2 14 -3 18 -6 3 -13 59 -17 124 -7 134 -13 128 88 97z m-107 -117 c-2 -16 -4 -3 -4 27 0 30 2 43 4 28 2 -16 2 -40 0 -55z m1 -330 l-2 -118 -3 112 -4 112 -62 4 -62 3 68 2 67 2 -2 -117z"/>
<path d="M929 399 c-9 -17 -7 -26 8 -48 38 -51 37 -53 -3 -36 -21 9 -40 18 -43 20 -2 3 -12 -2 -22 -11 -19 -17 -11 -31 78 -143 2 -3 11 2 20 11 14 15 14 19 -6 47 -25 35 -22 37 20 15 29 -14 32 -14 44 3 12 16 10 23 -13 52 -22 29 -23 33 -6 26 29 -12 67 -11 71 2 3 7 -26 27 -66 47 -70 36 -70 36 -82 15z"/>
</g>
<g id="layer106" fill="#3594cd" stroke="none">
<path d="M578 944 c22 -5 22 -7 20 -172 l-2 -167 -3 163 -3 162 -24 0 c-14 0 -30 2 -38 3 -7 2 -9 2 -4 -1 4 -2 -15 -13 -44 -23 -86 -30 -153 -88 -191 -165 -28 -57 -33 -76 -32 -142 0 -149 80 -272 210 -323 86 -33 199 -32 273 3 62 29 143 95 134 109 -3 5 2 12 10 15 9 3 13 10 10 15 -3 5 0 9 6 9 6 0 8 5 5 10 -3 6 -1 10 5 10 6 0 8 5 5 10 -3 6 -2 10 4 10 6 0 8 7 5 15 -4 8 -1 15 5 15 7 0 9 10 5 26 -5 21 -4 25 6 19 20 -12 8 142 -14 180 -9 17 -14 21 -10 10 12 -35 28 -114 23 -119 -2 -2 -76 -1 -164 3 -88 5 -150 9 -137 9 25 2 30 27 6 36 -8 3 -12 11 -8 17 3 6 2 14 -3 18 -6 3 -13 59 -17 125 l-6 119 42 -7 c90 -14 186 -77 241 -156 17 -25 17 -25 3 6 -39 81 -165 154 -275 160 -36 1 -56 1 -43 -2z m20 -516 l-2 -173 -3 163 -3 162 -48 1 c-26 1 -101 5 -167 9 l-120 6 173 2 172 2 -2 -172z m240 165 c-43 -2 -113 -2 -155 0 -43 1 -8 3 77 3 85 0 120 -2 78 -3z"/>
</g>
<g id="layer107" fill="#898e94" stroke="none">
<path d="M485 1193 c-47 -10 -115 -35 -115 -43 0 -5 -6 -7 -13 -4 -7 2 -21 -3 -32 -12 -11 -8 -14 -13 -7 -9 21 11 13 -4 -9 -16 -17 -8 -20 -8 -14 1 5 8 3 11 -6 8 -8 -3 -14 -10 -14 -16 0 -5 -4 -14 -9 -19 -5 -5 -6 -3 -2 5 4 6 2 12 -3 12 -6 0 -11 -6 -11 -14 0 -8 -5 -18 -12 -22 -7 -5 -8 -3 -3 7 8 12 6 12 -8 1 -9 -8 -15 -17 -14 -20 2 -8 -55 -67 -65 -67 -4 0 -13 -6 -20 -14 -11 -12 -11 -13 1 -6 9 5 12 4 7 -3 -4 -7 -14 -12 -22 -12 -8 0 -14 -5 -14 -11 0 -5 6 -7 13 -3 7 4 9 3 4 -2 -5 -5 -14 -9 -20 -9 -5 0 -12 -6 -15 -14 -3 -9 0 -11 9 -7 8 4 4 -1 -8 -11 -12 -10 -34 -49 -49 -88 -23 -59 -27 -89 -30 -185 -2 -77 2 -133 12 -169 55 -205 209 -364 419 -432 43 -14 226 -18 290 -7 55 10 105 28 105 39 0 4 6 6 14 3 8 -3 23 3 34 13 10 10 25 19 32 21 38 9 170 140 209 207 31 54 61 130 69 179 11 66 7 248 -7 291 -67 207 -231 366 -432 419 -50 13 -217 18 -264 9z m249 -43 c361 -92 538 -474 375 -808 -60 -123 -192 -238 -327 -284 -80 -27 -238 -32 -314 -9 l-47 13 36 19 c36 18 52 14 53 -13 0 -5 13 -8 29 -8 25 0 30 5 41 45 7 25 16 45 19 45 4 0 14 -19 22 -42 12 -33 21 -44 41 -46 23 -3 26 1 32 44 3 26 6 65 6 86 0 33 -3 39 -16 34 -9 -3 -20 -6 -25 -6 -5 0 -9 -19 -10 -42 l-1 -43 -15 43 c-13 38 -19 43 -39 39 -13 -2 -25 1 -28 7 -2 6 -4 -8 -4 -32 0 -24 -2 -46 -6 -49 -3 -4 -6 12 -6 35 0 30 -4 42 -15 42 -7 0 -18 6 -22 13 -4 8 -23 19 -40 25 -18 6 -52 24 -76 41 l-43 29 2 -31 c2 -18 1 -23 -2 -12 -3 11 -27 47 -52 79 -27 34 -39 57 -29 53 15 -6 15 -1 -4 36 -12 23 -22 43 -23 44 -1 2 -18 -6 -37 -16 -19 -10 -53 -22 -76 -25 -23 -4 -44 -14 -47 -22 -22 -56 -51 51 -50 181 1 81 6 113 26 167 57 151 150 258 280 323 132 64 259 79 392 45z m-438 -869 c-9 -4 -55 48 -56 64 0 5 15 -6 33 -25 17 -19 28 -37 23 -39z m-52 -41 c-6 -5 -53 52 -54 65 0 5 13 -6 29 -25 16 -19 27 -37 25 -40z"/>
<path d="M578 944 c22 -5 22 -7 20 -172 l-2 -167 -3 163 -3 162 -24 0 c-14 0 -30 2 -38 3 -7 2 -9 2 -4 -1 4 -2 -15 -13 -44 -23 -86 -30 -153 -88 -191 -165 -28 -57 -33 -76 -32 -142 0 -149 80 -272 210 -323 86 -33 199 -32 273 3 62 29 143 95 134 109 -3 5 2 12 10 15 9 3 13 10 10 15 -3 5 0 9 6 9 6 0 8 5 5 10 -3 6 -1 10 5 10 6 0 8 5 5 10 -3 6 -2 10 4 10 6 0 8 7 5 15 -4 8 -1 15 5 15 7 0 9 10 5 26 -5 21 -4 25 6 19 19 -12 8 141 -13 180 -20 37 -21 32 -2 -20 8 -22 14 -53 15 -68 l0 -28 -159 2 -158 1 -7 61 c-3 33 -6 107 -6 165 l0 105 43 -7 c89 -14 185 -77 240 -156 17 -25 17 -25 3 6 -39 81 -165 154 -275 160 -36 1 -56 1 -43 -2z m20 -516 l-1 -173 -6 122 c-4 67 -10 125 -14 129 -4 4 -7 2 -7 -4 0 -22 -20 -12 -30 14 -6 14 -14 22 -20 19 -5 -3 -10 1 -10 10 0 11 -5 15 -15 11 -9 -3 -15 0 -15 9 0 12 -19 15 -104 15 -59 0 -108 4 -111 10 -4 7 53 10 164 10 l171 0 -2 -172z m240 165 c-43 -2 -113 -2 -155 0 -43 1 -8 3 77 3 85 0 120 -2 78 -3z"/>
<path d="M926 394 c-7 -18 -2 -29 27 -61 29 -32 16 -38 -30 -14 -37 18 -41 18 -56 4 -15 -15 -12 -21 30 -75 49 -62 53 -64 70 -47 9 9 5 21 -15 47 l-27 35 32 -17 c38 -19 55 -20 70 -5 9 9 5 21 -15 47 -30 39 -33 38 37 16 11 -3 20 0 24 10 5 12 -9 23 -60 46 -76 35 -79 35 -87 14z"/>
</g>
<g id="layer108" fill="#62b3e1" stroke="none">
<path d="M612 648 l-2 -48 172 0 c94 0 169 2 167 5 -3 2 -77 5 -166 6 l-162 1 -4 42 -4 41 -1 -47z"/>
<path d="M266 540 c19 -139 139 -257 278 -276 l46 -7 -1 104 c-1 57 -5 115 -9 129 -4 14 -8 19 -9 13 -2 -22 -21 -14 -31 13 -6 14 -14 22 -20 19 -5 -3 -10 1 -10 10 0 11 -5 15 -15 11 -9 -3 -15 0 -15 9 0 11 -24 14 -110 17 l-111 3 7 -45z"/>
</g>
<g id="layer109" fill="#b5b7bb" stroke="none">
<path d="M512 1179 c-30 -5 -61 -14 -70 -20 -14 -8 -12 -9 8 -4 14 4 68 9 120 12 171 10 305 -42 430 -167 123 -122 170 -236 170 -410 0 -139 -48 -266 -144 -380 l-21 -25 24 20 c13 11 36 37 51 57 15 21 29 35 32 33 3 -3 5 1 5 7 1 18 46 122 54 126 4 2 5 12 2 22 -3 11 -1 20 4 20 6 0 8 11 5 25 -2 14 0 25 4 25 9 0 9 138 -1 201 -7 46 -57 169 -86 212 -51 74 -188 193 -231 201 -34 7 -98 30 -98 36 0 4 -12 5 -26 2 -15 -3 -25 -1 -22 4 8 12 -143 14 -210 3z"/>
<path d="M484 906 c-115 -36 -224 -171 -224 -276 l0 -30 165 0 165 0 0 138 c0 75 -3 147 -6 160 -7 26 -36 28 -100 8z"/>
<path d="M54 806 c-10 -24 -21 -43 -25 -40 -3 2 -4 -8 -1 -23 3 -14 1 -23 -4 -20 -5 3 -8 -13 -7 -36 2 -26 0 -35 -5 -24 -4 9 -7 -18 -7 -63 0 -47 3 -73 8 -63 4 11 6 1 3 -24 -2 -24 -1 -43 3 -43 4 0 8 -13 8 -30 0 -16 17 -64 38 -107 48 -99 160 -214 253 -261 77 -39 154 -62 181 -55 12 3 21 1 21 -3 0 -5 36 -9 80 -9 43 0 72 3 62 7 -12 5 -9 7 13 8 17 1 38 5 48 8 10 4 -29 6 -85 4 -178 -7 -317 47 -440 169 -72 73 -135 186 -158 288 -17 73 -8 220 19 295 25 70 21 86 -5 22z"/>
<path d="M693 603 c48 -2 126 -2 175 0 48 1 8 3 -88 3 -96 0 -136 -2 -87 -3z"/>
<path d="M607 583 c-4 -3 -7 -78 -7 -165 l0 -158 35 0 c94 0 209 79 260 180 32 63 43 129 24 141 -16 10 -302 12 -312 2z"/>
<path d="M200 373 c-30 -25 -56 -49 -58 -54 -6 -15 72 -108 95 -115 28 -8 43 2 43 27 0 16 4 19 20 14 25 -8 50 10 50 37 0 14 -87 141 -94 137 -1 0 -26 -21 -56 -46z m89 -42 c24 -34 27 -51 7 -51 -20 0 -69 67 -53 73 22 9 25 7 46 -22z m-48 -42 c16 -23 19 -33 10 -42 -9 -9 -19 -4 -41 23 -20 24 -25 37 -17 42 19 12 24 10 48 -23z"/>
<path d="M930 395 c-10 -12 -6 -22 19 -54 17 -21 31 -41 31 -45 0 -3 -21 4 -47 15 -46 20 -73 19 -73 -1 0 -12 78 -113 91 -118 20 -8 20 29 0 54 -27 35 -22 39 23 18 54 -26 67 -7 32 46 -29 45 -28 47 15 24 33 -17 45 -14 36 10 -5 12 -95 66 -110 66 -3 0 -10 -7 -17 -15z"/>
<path d="M355 362 c47 -50 121 -89 185 -97 l45 -5 -52 15 c-71 20 -125 48 -176 92 l-42 37 40 -42z"/>
<path d="M501 192 c0 -20 4 -57 7 -82 6 -39 10 -45 32 -45 20 0 26 8 39 48 8 26 17 47 20 47 4 0 14 -22 24 -50 17 -48 29 -58 53 -42 6 4 14 40 18 80 7 68 6 72 -13 72 -18 0 -21 -6 -21 -45 0 -25 -4 -45 -9 -45 -5 0 -14 20 -20 45 -9 34 -16 45 -31 45 -14 0 -23 -12 -34 -47 -15 -48 -15 -48 -15 -13 -1 40 -9 54 -33 63 -15 5 -18 1 -17 -31z"/>
</g>
<g id="layer110" fill="#e8e9eb" stroke="none">
<path d="M780 1146 c180 -70 306 -195 367 -364 15 -43 22 -55 18 -32 -10 68 -82 196 -149 263 -63 65 -174 130 -241 142 -28 5 -27 4 5 -9z"/>
<path d="M464 891 c-82 -21 -172 -126 -195 -227 -7 -30 -10 -57 -6 -60 3 -3 78 -2 168 2 l162 7 -7 131 c-3 71 -10 134 -15 139 -12 12 -72 17 -107 8z"/>
<path d="M610 421 l0 -164 45 6 c129 18 248 138 270 274 l7 42 -161 3 -161 3 0 -164z"/>
<path d="M31 473 c-1 -35 45 -148 85 -208 69 -105 200 -196 330 -230 83 -21 102 -17 24 6 -201 59 -343 190 -412 379 -15 41 -27 65 -27 53z"/>
<path d="M196 364 c-63 -51 -63 -51 3 -123 42 -46 60 -49 76 -13 5 12 16 20 23 17 20 -8 52 13 52 34 0 18 -79 130 -92 131 -3 0 -31 -21 -62 -46z m98 -35 c22 -26 24 -34 14 -46 -11 -13 -17 -10 -45 23 -25 28 -30 40 -21 46 20 12 24 10 52 -23z m-55 -35 c24 -31 27 -54 7 -54 -22 0 -68 63 -53 72 19 12 24 10 46 -18z"/>
<path d="M931 393 c-7 -14 -2 -27 25 -60 39 -47 33 -53 -27 -24 -38 19 -69 19 -69 1 0 -6 49 -73 87 -119 2 -3 9 1 15 7 9 9 7 19 -11 43 -29 39 -23 44 23 23 46 -22 54 -13 31 34 -29 55 -29 56 -14 50 55 -23 55 -23 29 6 -14 15 -37 33 -52 41 -24 14 -28 13 -37 -2z"/>
<path d="M394 331 c10 -15 104 -61 126 -61 8 0 -11 11 -43 24 -32 13 -65 30 -74 37 -14 12 -16 12 -9 0z"/>
<path d="M508 148 c2 -40 5 -74 6 -74 0 -1 10 -4 22 -8 18 -6 24 0 39 41 10 27 21 51 24 56 4 4 16 -19 26 -50 10 -32 20 -53 22 -46 2 7 10 10 18 7 14 -6 16 2 30 104 5 37 3 42 -15 42 -17 0 -20 -7 -20 -51 0 -59 -12 -57 -30 6 -17 62 -43 61 -60 -1 -14 -50 -30 -43 -30 14 0 24 -4 32 -18 32 -16 0 -17 -8 -14 -72z"/>
</g>


</svg>