<?xml version="1.0" standalone="no"?>
<!DOCTYPE svg PUBLIC "-//W3C//DTD SVG 20010904//EN"
 "http://www.w3.org/TR/2001/REC-SVG-20010904/DTD/svg10.dtd">
<svg version="1.0" xmlns="http://www.w3.org/2000/svg"
 width="120.000000pt" height="120.000000pt" viewBox="0 0 120.000000 120.000000"
 preserveAspectRatio="xMidYMid meet">
<metadata>
Created by potrace 1.10, written by Peter Selinger 2001-2011
</metadata>
<g transform="translate(0.000000,120.000000) scale(0.100000,-0.100000)"
fill="#ffd300" stroke="none">
<path d="M469 1007 c-305 -106 -397 -470 -178 -702 88 -93 196 -136 328 -131
169 6 319 113 382 273 33 82 33 224 1 305 -85 212 -326 328 -533 255z m232
-35 c83 -23 170 -82 215 -147 110 -160 92 -359 -45 -496 -64 -63 -116 -91
-208 -110 -116 -24 -248 19 -337 110 l-47 47 40 45 c21 24 51 58 65 74 15 17
25 25 24 20 -2 -6 22 -48 52 -94 l54 -84 29 34 c16 19 57 68 90 109 34 42 67
76 72 75 6 0 9 -4 7 -9 -4 -11 31 -197 36 -192 2 2 18 60 36 128 l33 123 57
11 c32 7 60 15 64 18 3 4 -13 26 -37 50 -46 47 -46 42 -15 149 8 25 -19 22
-72 -8 l-46 -26 -53 31 c-29 16 -56 30 -59 30 -4 0 -4 -19 -1 -42 15 -100 21
-89 -84 -143 l-95 -50 70 -6 c65 -6 125 4 110 18 -3 3 -22 6 -42 5 l-36 -1 22
19 c12 11 32 22 44 26 32 10 42 31 40 80 -1 24 1 44 5 44 3 0 22 -9 42 -19 34
-18 36 -18 74 0 21 10 40 19 42 19 2 0 1 -21 -3 -47 -5 -42 -3 -52 20 -77 28
-33 26 -46 -8 -46 -40 0 -65 -30 -82 -102 -9 -37 -20 -65 -25 -63 -4 3 -10 24
-14 47 -4 23 -13 48 -20 55 -17 16 -42 -7 -168 -161 -13 -16 -28 -26 -34 -23
-6 4 -28 33 -49 66 -21 33 -45 62 -53 66 -21 9 -72 -31 -110 -86 -31 -45 -49
-60 -52 -41 -1 4 -3 16 -4 27 -1 11 -6 31 -10 45 -72 213 46 440 259 501 79
23 127 23 207 1z"/>
<path d="M329 544 c-77 -89 -87 -104 -71 -104 12 0 21 9 86 83 26 32 53 57 60
56 6 0 29 -28 52 -61 57 -87 68 -91 107 -47 31 35 38 43 85 103 25 32 29 51 8
39 -19 -11 -126 -142 -126 -154 0 -6 -27 30 -61 80 -33 50 -62 91 -63 91 -2 0
-37 -39 -77 -86z"/>
</g>
</svg>
